<svg aria-hidden="true" style="position: absolute; width: 0; height: 0; overflow: hidden;" version="1.1" xmlns="http://www.w3.org/2000/svg" xmlns:xlink="http://www.w3.org/1999/xlink">
<defs>
<symbol id="icon-pinterest" viewBox="0 0 25 32">
<path d="M10.343 20.4c-0.24 0.96-0.48 1.954-0.731 2.926-0.24 0.971-0.457 1.943-0.811 2.823-0.594 1.474-1.349 2.88-2.343 4.034-0.651 0.754-0.514 0.457-0.709 0.411-0.16-0.034-0.171-0.183-0.194-0.389-0.16-1.166-0.057-2.514 0-3.817 0.069-1.497 0.389-2.731 0.674-3.977 0.56-2.354 1.086-4.663 1.646-7.040 0.034-0.16 0.137-0.423 0.103-0.503-0.251-0.663-0.423-1.257-0.491-1.943-0.080-0.8-0.023-1.543 0.16-2.229 0.309-1.211 1.040-2.274 2.16-2.674 0.72-0.24 1.509-0.126 1.989 0.16 0.491 0.286 0.834 0.754 0.983 1.417 0.171 0.709 0.046 1.543-0.091 2.16-0.297 1.394-0.697 2.446-1.063 3.783-0.183 0.674-0.389 1.36-0.217 2.069 0.149 0.663 0.491 1.12 0.971 1.463 0.48 0.354 1.051 0.549 1.851 0.526 1.406-0.057 2.377-0.949 3.029-1.794 1.040-1.36 1.68-3.189 1.92-5.36 0.069-0.697 0.126-1.509 0.080-2.297-0.103-1.474-0.56-2.651-1.291-3.566-0.697-0.869-1.68-1.566-2.869-1.954s-2.834-0.514-4.286-0.263c-2.651 0.446-4.514 1.954-5.611 4.034-0.583 1.086-0.96 2.343-0.96 3.897 0 1.2 0.297 2.126 0.777 2.857 0.149 0.229 0.366 0.423 0.514 0.686 0.217 0.366-0.023 0.926-0.137 1.326-0.126 0.491-0.137 1.154-0.697 1.166-0.24 0.011-0.537-0.16-0.731-0.274-1.497-0.823-2.4-2.32-2.766-4.274-0.229-1.177-0.229-2.549 0-3.691 0.217-1.109 0.617-2.126 1.063-2.949 0.937-1.726 2.297-3.097 3.954-4.080 1.28-0.754 2.72-1.28 4.469-1.531 0.583-0.091 1.177-0.126 1.829-0.149 1.909-0.091 3.646 0.331 4.949 0.914 1.383 0.617 2.48 1.44 3.406 2.457 0.96 1.051 1.657 2.263 2.103 3.783 0.229 0.789 0.446 1.634 0.446 2.617 0 0.971-0.206 1.84-0.343 2.709-0.549 3.223-2.080 5.874-4.389 7.371-0.56 0.366-1.234 0.709-2.011 0.926-0.754 0.229-1.623 0.389-2.56 0.331-0.903-0.069-1.646-0.309-2.263-0.663s-1.143-0.777-1.509-1.429z"></path>
</symbol>
<symbol id="icon-pinterest" viewBox="0 0 25 32">
<path d="M10.343 20.4c-0.24 0.96-0.48 1.954-0.731 2.926-0.24 0.971-0.457 1.943-0.811 2.823-0.594 1.474-1.349 2.88-2.343 4.034-0.651 0.754-0.514 0.457-0.709 0.411-0.16-0.034-0.171-0.183-0.194-0.389-0.16-1.166-0.057-2.514 0-3.817 0.069-1.497 0.389-2.731 0.674-3.977 0.56-2.354 1.086-4.663 1.646-7.040 0.034-0.16 0.137-0.423 0.103-0.503-0.251-0.663-0.423-1.257-0.491-1.943-0.080-0.8-0.023-1.543 0.16-2.229 0.309-1.211 1.040-2.274 2.16-2.674 0.72-0.24 1.509-0.126 1.989 0.16 0.491 0.286 0.834 0.754 0.983 1.417 0.171 0.709 0.046 1.543-0.091 2.16-0.297 1.394-0.697 2.446-1.063 3.783-0.183 0.674-0.389 1.36-0.217 2.069 0.149 0.663 0.491 1.12 0.971 1.463 0.48 0.354 1.051 0.549 1.851 0.526 1.406-0.057 2.377-0.949 3.029-1.794 1.040-1.36 1.68-3.189 1.92-5.36 0.069-0.697 0.126-1.509 0.080-2.297-0.103-1.474-0.56-2.651-1.291-3.566-0.697-0.869-1.68-1.566-2.869-1.954s-2.834-0.514-4.286-0.263c-2.651 0.446-4.514 1.954-5.611 4.034-0.583 1.086-0.96 2.343-0.96 3.897 0 1.2 0.297 2.126 0.777 2.857 0.149 0.229 0.366 0.423 0.514 0.686 0.217 0.366-0.023 0.926-0.137 1.326-0.126 0.491-0.137 1.154-0.697 1.166-0.24 0.011-0.537-0.16-0.731-0.274-1.497-0.823-2.4-2.32-2.766-4.274-0.229-1.177-0.229-2.549 0-3.691 0.217-1.109 0.617-2.126 1.063-2.949 0.937-1.726 2.297-3.097 3.954-4.080 1.28-0.754 2.72-1.28 4.469-1.531 0.583-0.091 1.177-0.126 1.829-0.149 1.909-0.091 3.646 0.331 4.949 0.914 1.383 0.617 2.48 1.44 3.406 2.457 0.96 1.051 1.657 2.263 2.103 3.783 0.229 0.789 0.446 1.634 0.446 2.617 0 0.971-0.206 1.84-0.343 2.709-0.549 3.223-2.080 5.874-4.389 7.371-0.56 0.366-1.234 0.709-2.011 0.926-0.754 0.229-1.623 0.389-2.56 0.331-0.903-0.069-1.646-0.309-2.263-0.663s-1.143-0.777-1.509-1.429z"></path>
</symbol>
<symbol id="icon-instagram" viewBox="0 0 32 32">
<path d="M31.969 9.408c-.075-1.7-.35-2.869-.744-3.882a7.806 7.806 0 00-1.851-2.838A7.867 7.867 0 0026.542.844C25.523.45 24.36.175 22.66.1 20.947.019 20.403 0 16.059 0s-4.888.019-6.595.094c-1.7.075-2.869.35-3.882.744a7.803 7.803 0 00-2.838 1.85A7.867 7.867 0 00.9 5.52C.506 6.539.231 7.702.156 9.402c-.081 1.713-.1 2.257-.1 6.601s.019 4.888.094 6.595c.075 1.7.35 2.869.744 3.882a7.895 7.895 0 001.85 2.838 7.867 7.867 0 002.832 1.844c1.019.394 2.182.669 3.882.744 1.706.075 2.25.094 6.595.094s4.888-.019 6.595-.094c1.7-.075 2.869-.35 3.882-.744a8.184 8.184 0 004.682-4.682c.394-1.019.669-2.182.744-3.882.075-1.707.094-2.251.094-6.595s-.006-4.888-.081-6.595zm-2.882 13.065c-.069 1.563-.331 2.407-.55 2.969a5.31 5.31 0 01-3.038 3.038c-.563.219-1.413.481-2.969.55-1.688.075-2.194.094-6.464.094s-4.782-.019-6.464-.094c-1.563-.069-2.407-.331-2.969-.55a4.926 4.926 0 01-1.838-1.194 4.974 4.974 0 01-1.194-1.838c-.219-.563-.481-1.413-.55-2.969-.075-1.688-.094-2.194-.094-6.464s.019-4.782.094-6.464c.069-1.563.331-2.407.55-2.969a4.868 4.868 0 011.2-1.838A4.974 4.974 0 016.639 3.55c.563-.219 1.413-.481 2.969-.55 1.688-.075 2.194-.094 6.464-.094 4.276 0 4.782.019 6.464.094 1.563.069 2.407.331 2.969.55a4.914 4.914 0 011.838 1.194 4.974 4.974 0 011.194 1.838c.219.563.481 1.413.55 2.969.075 1.688.094 2.194.094 6.464s-.019 4.77-.094 6.458z"/>
<path d="M16.059 7.783c-4.538 0-8.22 3.682-8.22 8.22s3.682 8.22 8.22 8.22c4.539 0 8.22-3.682 8.22-8.22s-3.682-8.22-8.22-8.22zm0 13.552a5.333 5.333 0 010-10.664 5.333 5.333 0 010 10.664zM26.524 7.458a1.919 1.919 0 11-3.838 0 1.919 1.919 0 013.838 0z"/>
</symbol>
<symbol id="icon-facebook" viewBox="0 0 32 32">
<path d="M21.329 5.313h2.921V.225C23.746.156 22.013 0 19.994 0c-4.212 0-7.097 2.649-7.097 7.519V12H8.249v5.688h4.648V32h5.699V17.689h4.46l.708-5.688h-5.169V8.082c.001-1.644.444-2.769 2.735-2.769z"/>
</symbol>
<symbol id="icon-twitter" viewBox="0 0 32 32">
<path d="M32 6.078c-1.19.522-2.458.868-3.78 1.036a6.523 6.523 0 002.886-3.626 13.11 13.11 0 01-4.16 1.588A6.574 6.574 0 0022.154 3c-3.632 0-6.556 2.948-6.556 6.562 0 .52.044 1.02.152 1.496-5.454-.266-10.28-2.88-13.522-6.862a6.605 6.605 0 00-.898 3.316 6.57 6.57 0 002.914 5.452 6.479 6.479 0 01-2.964-.808v.072c0 3.188 2.274 5.836 5.256 6.446a6.548 6.548 0 01-1.72.216 5.8 5.8 0 01-1.242-.112c.85 2.598 3.262 4.508 6.13 4.57a13.182 13.182 0 01-8.134 2.798c-.538 0-1.054-.024-1.57-.09A18.469 18.469 0 0010.064 29c12.072 0 18.672-10 18.672-18.668 0-.29-.01-.57-.024-.848A13.087 13.087 0 0032 6.078z"/>
</symbol>
<symbol id="icon-creativity" viewBox="0 0 36 32">
<path  d="M33.067 25.6h-10.133v2.667l2.133 2.133v0.533h-13.867v-0.533l2.133-2.133v-2.667h-10.133c-0.885 0-1.6-0.715-1.6-1.6v-21.333c0-0.885 0.715-1.6 1.6-1.6h29.867c0.885 0 1.6 0.715 1.6 1.6v21.333c0 0.885-0.715 1.6-1.6 1.6zM32.533 3.2h-28.8v18.133h28.8v-18.133zM14.933 10.667c0.437 0 0.843 0.181 1.131 0.469v0l1.003 1.003 3.136-3.136c0.288-0.288 0.693-0.469 1.131-0.469 0.885 0 1.6 0.715 1.6 1.6 0 0.437-0.181 0.843-0.469 1.131v0l-4.267 4.267c-0.288 0.288-0.693 0.469-1.131 0.469s-0.843-0.181-1.131-0.469v0l-2.133-2.133c-0.288-0.288-0.469-0.693-0.469-1.131 0-0.885 0.715-1.6 1.6-1.6z"></path>
</symbol>
<symbol id="icon-design" viewBox="0 0 32 32">
<path  d="M29.714 30.171h-26.514c-0.759 0-1.371-0.613-1.371-1.371v-26.514c0-0.759 0.613-1.371 1.371-1.371h26.514c0.759 0 1.371 0.613 1.371 1.371v26.514c0 0.759-0.613 1.371-1.371 1.371zM28.343 3.657h-23.771v23.771h23.771v-23.771zM6.601 15.762h-0.009l3.657-2.286h0.009c0.201-0.128 0.448-0.201 0.713-0.201 0.283 0 0.549 0.082 0.768 0.229h0.009l6.062 4.041 6.976-4.937c0.229-0.165 0.512-0.256 0.814-0.256 0.759 0 1.371 0.613 1.371 1.371 0 0.457-0.229 0.859-0.567 1.106v0l-7.771 5.486c-0.229 0.165-0.503 0.265-0.805 0.265-0.293 0-0.567-0.101-0.786-0.256l-6.089-4.050-2.862 1.783c-0.219 0.155-0.494 0.247-0.777 0.247-0.759 0-1.371-0.613-1.371-1.371 0-0.494 0.265-0.933 0.658-1.17z"></path>
</symbol>
<symbol id="icon-digital" viewBox="0 0 32 32">
<path  d="M29.647 31.059h-27.294c-0.781 0-1.412-0.631-1.412-1.412v-27.294c0-0.781 0.631-1.412 1.412-1.412h27.294c0.781 0 1.412 0.631 1.412 1.412v27.294c0 0.781-0.631 1.412-1.412 1.412zM28.235 3.765h-24.471v24.471h24.471v-24.471zM7.059 5.176h5.176c0.781 0 1.412 0.631 1.412 1.412s-0.631 1.412-1.412 1.412v0h-4.235v4.235c0 0.781-0.631 1.412-1.412 1.412s-1.412-0.631-1.412-1.412v0-7.059h1.882zM5.176 19.765v0c0-0.781 0.631-1.412 1.412-1.412s1.412 0.631 1.412 1.412v0 4.235h4.235c0.781 0 1.412 0.631 1.412 1.412s-0.631 1.412-1.412 1.412v0h-7.059v-7.059zM19.765 5.176v0h7.059v7.059c0 0.781-0.631 1.412-1.412 1.412s-1.412-0.631-1.412-1.412v0-4.235h-4.235c-0.781 0-1.412-0.631-1.412-1.412s0.631-1.412 1.412-1.412zM19.765 24v0h4.235v-4.235c0-0.781 0.631-1.412 1.412-1.412s1.412 0.631 1.412 1.412v0 7.059h-7.059c-0.781 0-1.412-0.631-1.412-1.412s0.631-1.412 1.412-1.412z"></path>
</symbol>

<symbol id="icon-seo" viewBox="0 0 32 32">
<path  d="M30.174 25.308l-13.619 5.638c-0.169 0.075-0.358 0.113-0.555 0.113s-0.386-0.038-0.555-0.113l-13.619-5.638c-0.518-0.207-0.885-0.715-0.885-1.308v-21.647c0-0.781 0.631-1.412 1.412-1.412 0.188 0 0.376 0.038 0.536 0.104v0h0.009c0 0.009 0 0.009 0.009 0.009l13.092 5.421 13.092-5.421c0 0 0.009 0 0.009-0.009h0.009c0.16-0.066 0.348-0.104 0.536-0.104 0.781 0 1.412 0.631 1.412 1.412v21.647c0 0.593-0.367 1.101-0.885 1.308zM14.588 8.941l-10.824-4.48v18.598l10.824 4.48v-18.598zM28.235 4.461l-10.824 4.48v18.598l10.824-4.48v-18.598zM19.652 10.946l5.176-2.353c0.179-0.075 0.376-0.122 0.584-0.122 0.781 0 1.412 0.631 1.412 1.412 0 0.574-0.339 1.064-0.828 1.289v0l-5.176 2.353c-0.179 0.075-0.376 0.122-0.584 0.122-0.781 0-1.412-0.631-1.412-1.412 0-0.574 0.339-1.064 0.828-1.289zM19.652 16.122v0l5.176-2.353c0.179-0.075 0.376-0.122 0.584-0.122 0.781 0 1.412 0.631 1.412 1.412 0 0.574-0.339 1.064-0.828 1.289l-5.176 2.353v-0.009c-0.179 0.085-0.376 0.132-0.584 0.132-0.781 0-1.412-0.631-1.412-1.412 0-0.574 0.339-1.064 0.828-1.289zM19.652 21.299v0l5.176-2.353c0.179-0.075 0.376-0.122 0.584-0.122 0.781 0 1.412 0.631 1.412 1.412 0 0.574-0.339 1.064-0.828 1.289v0l-5.176 2.353c-0.179 0.075-0.376 0.122-0.584 0.122-0.781 0-1.412-0.631-1.412-1.412 0-0.574 0.339-1.064 0.828-1.289zM6.588 8.471c0.207 0 0.405 0.047 0.584 0.122v0l5.176 2.353c0.489 0.226 0.828 0.715 0.828 1.289 0 0.781-0.631 1.412-1.412 1.412-0.207 0-0.405-0.047-0.584-0.122v0l-5.176-2.353c-0.489-0.226-0.828-0.715-0.828-1.289 0-0.781 0.631-1.412 1.412-1.412zM6.588 13.647c0.207 0 0.405 0.047 0.584 0.122v0l5.176 2.353c0.489 0.226 0.828 0.715 0.828 1.289 0 0.781-0.631 1.412-1.412 1.412-0.207 0-0.405-0.047-0.584-0.132v0.009l-5.176-2.353c-0.489-0.226-0.828-0.715-0.828-1.289 0-0.781 0.631-1.412 1.412-1.412zM6.588 18.824c0.207 0 0.405 0.047 0.584 0.122v0l5.176 2.353c0.489 0.226 0.828 0.715 0.828 1.289 0 0.781-0.631 1.412-1.412 1.412-0.207 0-0.405-0.047-0.584-0.122v0l-5.176-2.353c-0.489-0.226-0.828-0.715-0.828-1.289 0-0.781 0.631-1.412 1.412-1.412z"></path>
</symbol>
<symbol id="icon-css" viewBox="0 0 33 32">
<path  d="M32 16.97c0 0.805-0.65 1.455-1.455 1.455-0.388 0-0.727-0.155-0.989-0.398v0.010l-13.072-13.072-13.042 13.042c-0.262 0.252-0.621 0.417-1.018 0.417-0.805 0-1.455-0.65-1.455-1.455 0-0.417 0.175-0.785 0.446-1.047l14.022-14.022c0.262-0.272 0.64-0.446 1.047-0.446v0 0c0 0 0 0 0 0 0.029 0 0.049 0 0.078 0 0 0 0.010 0 0.010 0 0.019 0 0.049 0.010 0.068 0.010 0 0 0 0 0 0 0.359 0.039 0.679 0.204 0.912 0.456v0l5.721 5.721v-1.338c0-0.805 0.65-1.455 1.455-1.455s1.455 0.65 1.455 1.455v4.247l5.43 5.43h-0.010c0.242 0.262 0.398 0.601 0.398 0.989zM29.091 19.394v10.182c0 0.805-0.65 1.455-1.455 1.455h-2.909v-11.636h-5.818v11.636h-13.576c-0.805 0-1.455-0.65-1.455-1.455v-10.182l12.606-12.606 12.606 12.606zM14.061 19.394h-5.818v5.818h5.818v-5.818z"></path>
</symbol>
<symbol id="icon-photography" viewBox="0 0 33 32">
<path  d="M30.778 10.182c-1.532-3.578-4.412-6.458-7.99-7.99 0.97-0.766 2.182-1.222 3.52-1.222 3.142 0 5.692 2.55 5.692 5.692 0 1.329-0.456 2.55-1.222 3.52zM30.545 16.485c0 3.733-1.464 7.118-3.84 9.639l1.968 1.968c0.252 0.262 0.417 0.621 0.417 1.018 0 0.795-0.64 1.435-1.435 1.435-0.398 0-0.756-0.165-1.018-0.417l-2.114-2.114c-2.279 1.59-5.052 2.531-8.039 2.531s-5.75-0.941-8.029-2.521l-2.095 2.095c-0.262 0.262-0.63 0.427-1.028 0.427-0.805 0-1.455-0.65-1.455-1.455 0-0.398 0.165-0.766 0.427-1.028l1.949-1.949c-2.366-2.521-3.83-5.896-3.83-9.629 0-7.767 6.293-14.061 14.061-14.061s14.061 6.293 14.061 14.061zM16.485 5.333c-6.158 0-11.152 4.994-11.152 11.151s4.994 11.152 11.152 11.152c6.158 0 11.152-4.994 11.152-11.151s-4.994-11.152-11.151-11.152zM22.303 17.939h-5.818c-0.805 0-1.455-0.65-1.455-1.455v-7.758c0-0.805 0.65-1.455 1.455-1.455s1.455 0.65 1.455 1.455v6.303h4.364c0.805 0 1.455 0.65 1.455 1.455s-0.65 1.455-1.455 1.455zM2.221 10.385c-0.785-0.999-1.251-2.24-1.251-3.598 0-3.21 2.608-5.818 5.818-5.818 1.358 0 2.608 0.465 3.598 1.251-3.665 1.561-6.604 4.499-8.165 8.165z"></path>
</symbol>
<symbol id="icon-magnifying-glass" viewBox="0 0 32 32">
<path d="M22.143 18.989c3.841-5.424 2.557-12.935-2.868-16.775s-12.935-2.557-16.775 2.869c-3.84 5.424-2.557 12.934 2.869 16.775 3.872 2.741 8.99 2.952 13.074 0.541l8.873 8.819c0.958 1.008 2.552 1.049 3.56 0.091s1.049-2.551 0.092-3.56c-0.030-0.032-0.060-0.061-0.092-0.092zM12.314 19.811c-4.286 0.001-7.761-3.471-7.764-7.758-0.001-4.286 3.471-7.761 7.759-7.763 4.281-0.002 7.754 3.465 7.762 7.746 0.007 4.287-3.463 7.768-7.751 7.775-0.002 0-0.003 0-0.005 0z"></path>
</symbol>
<symbol id="icon-shopping-cart" viewBox="0 0 32 32">
<path d="M10.31 20.688h0.001c0.001 0 0.002-0 0.004-0h16.997c0.418 0 0.786-0.278 0.901-0.68l3.75-13.125c0.081-0.283 0.024-0.587-0.153-0.822s-0.454-0.373-0.749-0.373h-22.915l-0.67-3.016c-0.095-0.429-0.476-0.734-0.915-0.734h-5.625c-0.518 0-0.938 0.42-0.938 0.938s0.42 0.938 0.938 0.938h4.873c0.119 0.534 3.207 14.432 3.385 15.232-0.996 0.433-1.695 1.427-1.695 2.581 0 1.551 1.262 2.813 2.813 2.813h17c0.518 0 0.938-0.42 0.938-0.938s-0.42-0.938-0.938-0.938h-17c-0.517 0-0.938-0.421-0.938-0.938s0.419-0.936 0.935-0.937zM29.82 7.563l-3.214 11.25h-15.541l-2.5-11.25z"></path>
<path d="M9.375 27.25c0 1.551 1.262 2.813 2.813 2.813s2.813-1.262 2.813-2.813-1.262-2.813-2.813-2.813-2.813 1.262-2.813 2.813zM12.188 26.313c0.517 0 0.938 0.421 0.938 0.938s-0.421 0.938-0.938 0.938-0.938-0.421-0.938-0.938 0.421-0.938 0.938-0.938z"></path>
<path d="M22.625 27.25c0 1.551 1.262 2.813 2.813 2.813s2.813-1.262 2.813-2.813-1.262-2.813-2.813-2.813-2.813 1.262-2.813 2.813zM25.438 26.313c0.517 0 0.938 0.421 0.938 0.938s-0.421 0.938-0.938 0.938-0.938-0.421-0.938-0.938 0.421-0.938 0.938-0.938z"></path>
</symbol>
</defs>
</svg>
